<svg width="37" height="76" viewBox="0 0 37 76" fill="none" xmlns="http://www.w3.org/2000/svg">
<path d="M3.00003 28C-4.18274 43.1637 3.83334 57.3333 7.50001 61L17 72C13 66.8 15.3334 54.1667 17 48.5C19 44.9 22.1667 35.8333 23 32C25.8 17.6 18.5 4.83333 14 0C19 13.5 7.50001 18.5 3.00003 28Z" fill="#3AD703"/>
<path d="M12.2575 30.6668C4.67086 42.5837 8.06046 55.1419 10.8473 59.2349L17.1704 73.8544C21.4321 68.8266 22.1869 67.5804 24.8537 62.7041C27.4429 59.7922 27.9422 41.9126 29.4665 38.5558C34.397 24.9016 25.8565 13.8295 22.5 8.50001C24.6774 21.89 16.9241 22.5325 12.2575 30.6668Z" fill="#4CEB14"/>
<path d="M31.5 48C34.3781 60.0879 22.3333 69.8333 17 74.5C20 70.5 20.8333 58.8333 19.5 51.5C16.7 39.9 23.3333 27.3333 28 22C25.5 36.5 29 37.5 31.5 48Z" fill="#34C900"/>
</svg>
