<svg width="37" height="76" viewBox="0 0 37 76" fill="none" xmlns="http://www.w3.org/2000/svg">
<path d="M2.89111 28C-4.29165 43.1637 3.72442 57.3333 7.39109 61L16.8911 72C12.8911 66.8 15.2244 54.1667 16.8911 48.5C18.8911 44.9 22.0577 35.8333 22.8911 32C25.6911 17.6 18.3911 4.83333 13.8911 0C18.8911 13.5 7.39109 18.5 2.89111 28Z" fill="#DCDDDC"/>
<path d="M12.1485 30.6668C4.56195 42.5837 7.95154 55.1419 10.7383 59.2349L17.0615 73.8544C21.3232 68.8266 22.078 67.5804 24.7448 62.7041C27.334 59.7922 27.8333 41.9126 29.3576 38.5558C34.288 24.9016 25.7476 13.8295 22.3911 8.50001C24.5685 21.89 16.8152 22.5325 12.1485 30.6668Z" fill="#E9E9E9"/>
<path d="M31.3911 48C34.2691 60.0879 22.2244 69.8333 16.8911 74.5C19.8911 70.5 20.7244 58.8333 19.3911 51.5C16.5911 39.9 23.2244 27.3333 27.8911 22C25.3911 36.5 28.8911 37.5 31.3911 48Z" fill="#C4C4C4"/>
</svg>
