<svg width="58" height="38" viewBox="0 0 58 38" fill="none" xmlns="http://www.w3.org/2000/svg">
<path d="M5.52 30V25.38H10.62C11.82 25.38 12.86 25.15 13.74 24.69C14.64 24.23 15.33 23.55 15.81 22.65C16.29 21.73 16.53 20.62 16.53 19.32C16.53 18.04 16.28 16.96 15.78 16.08C15.3 15.18 14.62 14.5 13.74 14.04C12.86 13.58 11.82 13.35 10.62 13.35H5.28V8.73H10.65C12.29 8.73 13.8 8.99 15.18 9.51C16.56 10.01 17.76 10.73 18.78 11.67C19.8 12.61 20.59 13.73 21.15 15.03C21.73 16.33 22.02 17.77 22.02 19.35C22.02 20.95 21.73 22.4 21.15 23.7C20.59 25 19.8 26.12 18.78 27.06C17.76 28 16.56 28.73 15.18 29.25C13.82 29.75 12.33 30 10.71 30H5.52ZM1.89 30V8.73H7.26V30H1.89ZM40.0165 30V25.38H45.1165C46.3165 25.38 47.3565 25.15 48.2365 24.69C49.1365 24.23 49.8265 23.55 50.3065 22.65C50.7865 21.73 51.0265 20.62 51.0265 19.32C51.0265 18.04 50.7765 16.96 50.2765 16.08C49.7965 15.18 49.1165 14.5 48.2365 14.04C47.3565 13.58 46.3165 13.35 45.1165 13.35H39.7765V8.73H45.1465C46.7865 8.73 48.2965 8.99 49.6765 9.51C51.0565 10.01 52.2565 10.73 53.2765 11.67C54.2965 12.61 55.0865 13.73 55.6465 15.03C56.2265 16.33 56.5165 17.77 56.5165 19.35C56.5165 20.95 56.2265 22.4 55.6465 23.7C55.0865 25 54.2965 26.12 53.2765 27.06C52.2565 28 51.0565 28.73 49.6765 29.25C48.3165 29.75 46.8265 30 45.2065 30H40.0165ZM36.3865 30V8.73H41.7565V30H36.3865Z" fill="#000114"/>
<path d="M31.5 8L31.5 22.67L26.25 22.67L26.25 8L31.5 8ZM28.89 24.38C29.67 24.38 30.32 24.64 30.84 25.16C31.36 25.7 31.62 26.37 31.62 27.17C31.62 27.95 31.36 28.61 30.84 29.15C30.32 29.69 29.67 29.96 28.89 29.96C28.07 29.96 27.41 29.69 26.91 29.15C26.39 28.61 26.13 27.95 26.13 27.17C26.13 26.37 26.39 25.7 26.91 25.16C27.41 24.64 28.07 24.38 28.89 24.38Z" fill="#000114"/>
</svg>
